<svg width="30" height="30" viewBox="0 0 30 30" fill="none" xmlns="http://www.w3.org/2000/svg">
<path d="M27.7928 13.4375C27.2753 13.4375 26.8553 13.0175 26.8553 12.5C26.8553 8.90994 25.458 5.53622 22.9204 2.99747C22.5542 2.63126 22.5542 2.03754 22.9204 1.67133C23.2866 1.30511 23.8803 1.30511 24.2468 1.67133C27.138 4.56371 28.7303 8.41006 28.7303 12.5C28.7303 13.0175 28.3103 13.4375 27.7928 13.4375Z" fill="#4360FB"/>
<path d="M2.16797 13.4374C1.65047 13.4374 1.23047 13.0174 1.23047 12.4999C1.23047 8.41002 2.82303 4.56366 5.71541 1.67242C6.08162 1.30621 6.67557 1.30621 7.04178 1.67242C7.40799 2.03864 7.40799 2.63258 7.04178 2.99879C4.50302 5.53618 3.10547 8.9099 3.10547 12.4999C3.10547 13.0174 2.68547 13.4374 2.16797 13.4374Z" fill="#4360FB"/>
<path d="M14.9805 30C12.3955 30 10.293 27.8975 10.293 25.3125C10.293 24.795 10.713 24.375 11.2305 24.375C11.748 24.375 12.168 24.795 12.168 25.3125C12.168 26.8639 13.4291 28.125 14.9805 28.125C16.5316 28.125 17.793 26.8639 17.793 25.3125C17.793 24.795 18.213 24.375 18.7305 24.375C19.248 24.375 19.668 24.795 19.668 25.3125C19.668 27.8975 17.5655 30 14.9805 30Z" fill="#4360FB"/>
<path d="M25.2931 26.25H4.66812C3.46169 26.25 2.48047 25.2688 2.48047 24.0626C2.48047 23.4224 2.75925 22.8163 3.24562 22.4C5.14671 20.7937 6.23047 18.4589 6.23047 15.9851V12.4999C6.23047 7.67509 10.1556 3.75 14.9806 3.75C19.8055 3.75 23.7305 7.67509 23.7305 12.4999V15.9851C23.7305 18.4589 24.8143 20.7937 26.703 22.3913C27.2018 22.8163 27.4805 23.4224 27.4805 24.0626C27.4805 25.2688 26.4993 26.25 25.2931 26.25ZM14.9806 5.625C11.1892 5.625 8.10547 8.70872 8.10547 12.4999V15.9851C8.10547 19.0112 6.77933 21.8687 4.46808 23.8225C4.42436 23.86 4.35547 23.9376 4.35547 24.0626C4.35547 24.2324 4.49806 24.375 4.66812 24.375H25.2931C25.463 24.375 25.6055 24.2324 25.6055 24.0626C25.6055 23.9376 25.5369 23.86 25.4955 23.825C23.1817 21.8687 21.8555 19.0112 21.8555 15.9851V12.4999C21.8555 8.70872 18.7718 5.625 14.9806 5.625Z" fill="#4360FB"/>
<path d="M14.9805 5.625C14.463 5.625 14.043 5.205 14.043 4.6875V0.9375C14.043 0.419998 14.463 0 14.9805 0C15.498 0 15.918 0.419998 15.918 0.9375V4.6875C15.918 5.205 15.498 5.625 14.9805 5.625Z" fill="#4360FB"/>
</svg>
